<svg width="18" height="14" viewBox="0 0 18 14" fill="none" xmlns="http://www.w3.org/2000/svg">
<path d="M0.63556 6.29318C0.448089 6.48071 0.342773 6.73502 0.342773 7.00018C0.342773 7.26535 0.448089 7.51965 0.63556 7.70718L6.29256 13.3642C6.48116 13.5463 6.73376 13.6471 6.99596 13.6449C7.25816 13.6426 7.50897 13.5374 7.69438 13.352C7.87979 13.1666 7.98495 12.9158 7.98723 12.6536C7.98951 12.3914 7.88872 12.1388 7.70656 11.9502L3.75656 8.00018H16.9996C17.2648 8.00018 17.5191 7.89482 17.7067 7.70729C17.8942 7.51975 17.9996 7.2654 17.9996 7.00018C17.9996 6.73496 17.8942 6.48061 17.7067 6.29307C17.5191 6.10554 17.2648 6.00018 16.9996 6.00018H3.75656L7.70656 2.05018C7.88872 1.86158 7.98951 1.60898 7.98723 1.34678C7.98495 1.08458 7.87979 0.83377 7.69438 0.648362C7.50897 0.462954 7.25816 0.357785 6.99596 0.355507C6.73376 0.353228 6.48116 0.454022 6.29256 0.636181L0.63556 6.29318Z" fill="#374151"/>
</svg>
