<svg width="24" height="24" viewBox="0 0 24 24" fill="none" xmlns="http://www.w3.org/2000/svg">
<path d="M14.3999 8.89999C14.1999 8.89999 13.9999 9.09999 13.9999 9.29999C13.9999 9.49999 14.1999 9.69999 14.3999 9.69999C14.5999 9.69999 14.7999 9.49999 14.7999 9.29999C14.7999 9.09999 14.5999 8.89999 14.3999 8.89999" stroke="#828282" stroke-width="1.5" stroke-linecap="round" stroke-linejoin="round"/>
<path fill-rule="evenodd" clip-rule="evenodd" d="M9.5 11.3L8.6 9.30001C8.3 8.50001 8.5 7.60001 9.1 7.00001L12 4.10001C12.6 3.50001 13.4 3.40001 14.2 3.70001L17.7 5.20001C18.2 5.40001 18.6 5.80001 18.8 6.30001L20.3 9.80001C20.6 10.6 20.4 11.4 19.9 12L17 14.9C16.4 15.5 15.6 15.6 14.8 15.3L12.7 14.4L6.7 20.4H3.5V17.2L9.5 11.3Z" stroke="#828282" stroke-width="1.5" stroke-linecap="round" stroke-linejoin="round"/>
</svg>
