<svg width="30" height="30" viewBox="0 0 30 30" fill="none" xmlns="http://www.w3.org/2000/svg">
<path fill-rule="evenodd" clip-rule="evenodd" d="M8.53841 8.53841C5.59006 11.4868 5.07642 15.951 7.00263 19.4266C7.28535 19.9367 7.10099 20.5794 6.59087 20.8621C6.08074 21.1449 5.43801 20.9605 5.15529 20.4504C2.78456 16.1727 3.41273 10.6772 7.04495 7.04495C10.6772 3.41273 16.1727 2.78456 20.4504 5.15529C20.9605 5.43801 21.1449 6.08074 20.8621 6.59087C20.5794 7.10099 19.9367 7.28535 19.4266 7.00263C15.951 5.07642 11.4868 5.59006 8.53841 8.53841ZM9.13786 23.4091C9.42058 22.899 10.0633 22.7147 10.5734 22.9974C14.049 24.9236 18.5132 24.4099 21.4616 21.4616C24.4099 18.5132 24.9236 14.049 22.9974 10.5734C22.7147 10.0633 22.899 9.42058 23.4091 9.13786C23.9193 8.85514 24.562 9.03949 24.8447 9.54962C27.2154 13.8273 26.5873 19.3228 22.9551 22.9551C19.3228 26.5873 13.8273 27.2154 9.54962 24.8447C9.03949 24.562 8.85514 23.9193 9.13786 23.4091Z" fill="#6F74DD"/>
</svg>
